# This file uses centimeters as units for non-parametric coordinates.

mtllib Hoop_VR.mtl
g default
v 26.033852 -2.451019 -8.084687
v 22.145718 -2.451019 -15.377986
v 16.089803 -2.451019 -21.165984
v 8.458910 -2.451019 -24.882106
v 0.000000 -2.451019 -26.162592
v -8.458910 -2.451019 -24.882103
v -16.089801 -2.451019 -21.165979
v -22.145710 -2.451019 -15.377983
v -26.033843 -2.451019 -8.084684
v -27.373601 -2.451019 0.000000
v -26.033843 -2.451019 8.084684
v -22.145708 -2.451019 15.377981
v -16.089798 -2.451019 21.165975
v -8.458909 -2.451019 24.882095
v -0.000001 -2.451019 26.162582
v 8.458905 -2.451019 24.882095
v 16.089795 -2.451019 21.165973
v 22.145703 -2.451019 15.377980
v 26.033836 -2.451019 8.084682
v 27.373595 -2.451019 0.000000
v 26.033852 2.451019 -8.084687
v 22.145718 2.451019 -15.377986
v 16.089803 2.451019 -21.165984
v 8.458910 2.451019 -24.882106
v 0.000000 2.451019 -26.162592
v -8.458910 2.451019 -24.882103
v -16.089801 2.451019 -21.165979
v -22.145710 2.451019 -15.377983
v -26.033843 2.451019 -8.084684
v -27.373601 2.451019 0.000000
v -26.033843 2.451019 8.084684
v -22.145708 2.451019 15.377981
v -16.089798 2.451019 21.165975
v -8.458909 2.451019 24.882095
v -0.000001 2.451019 26.162582
v 8.458905 2.451019 24.882095
v 16.089795 2.451019 21.165973
v 22.145703 2.451019 15.377980
v 26.033836 2.451019 8.084682
v 27.373595 2.451019 0.000000
v 20.445844 -2.451019 -6.719477
v 17.392276 -2.451019 -12.781203
v 12.636226 -2.451019 -17.591818
v 6.643257 -2.451019 -20.680422
v -0.000001 -2.451019 -21.744681
v -6.643258 -2.451019 -20.680419
v -12.636226 -2.451019 -17.591815
v -17.392270 -2.451019 -12.781200
v -20.445839 -2.451019 -6.719475
v -21.498028 -2.451019 -0.000001
v -20.445839 -2.451019 6.719473
v -17.392270 -2.451019 12.781197
v -12.636222 -2.451019 17.591809
v -6.643257 -2.451019 20.680413
v -0.000001 -2.451019 21.744671
v 6.643253 -2.451019 20.680413
v 12.636219 -2.451019 17.591807
v 17.392263 -2.451019 12.781197
v 20.445833 -2.451019 6.719472
v 21.498021 -2.451019 -0.000001
v 20.445844 2.451019 -6.719477
v 17.392276 2.451019 -12.781203
v 12.636226 2.451019 -17.591818
v 6.643257 2.451019 -20.680422
v -0.000001 2.451019 -21.744681
v -6.643258 2.451019 -20.680419
v -12.636226 2.451019 -17.591815
v -17.392270 2.451019 -12.781200
v -20.445839 2.451019 -6.719475
v -21.498028 2.451019 -0.000001
v -20.445839 2.451019 6.719473
v -17.392270 2.451019 12.781197
v -12.636222 2.451019 17.591809
v -6.643257 2.451019 20.680413
v -0.000001 2.451019 21.744671
v 6.643253 2.451019 20.680413
v 12.636219 2.451019 17.591807
v 17.392263 2.451019 12.781197
v 20.445833 2.451019 6.719472
v 21.498021 2.451019 -0.000001
vt 0.130331 0.838707
vt 0.126653 0.833316
vt 0.120925 0.829037
vt 0.113706 0.826290
vt 0.105704 0.825343
vt 0.097703 0.826290
vt 0.090484 0.829037
vt 0.084756 0.833316
vt 0.081078 0.838707
vt 0.079811 0.844684
vt 0.081078 0.850660
vt 0.084756 0.856051
vt 0.090484 0.860330
vt 0.097703 0.863077
vt 0.105704 0.864024
vt 0.113706 0.863077
vt 0.120925 0.860330
vt 0.126653 0.856051
vt 0.130331 0.850660
vt 0.131598 0.844684
vt 0.084989 0.864024
vt 0.087061 0.864024
vt 0.089132 0.864024
vt 0.091204 0.864024
vt 0.093275 0.864024
vt 0.095347 0.864024
vt 0.097418 0.864024
vt 0.099490 0.864024
vt 0.101561 0.864024
vt 0.103633 0.864024
vt 0.105704 0.864024
vt 0.107776 0.864024
vt 0.109847 0.864024
vt 0.111919 0.864024
vt 0.113990 0.864024
vt 0.116062 0.864024
vt 0.118133 0.864024
vt 0.120205 0.864024
vt 0.122277 0.864024
vt 0.124348 0.864024
vt 0.126420 0.864024
vt 0.084989 0.910557
vt 0.087061 0.910557
vt 0.089132 0.910557
vt 0.091204 0.910557
vt 0.093275 0.910557
vt 0.095347 0.910557
vt 0.097418 0.910557
vt 0.099490 0.910557
vt 0.101561 0.910557
vt 0.103633 0.910557
vt 0.105704 0.910557
vt 0.107776 0.910557
vt 0.109847 0.910557
vt 0.111919 0.910557
vt 0.113990 0.910557
vt 0.116062 0.910557
vt 0.118133 0.910557
vt 0.120205 0.910557
vt 0.122277 0.910557
vt 0.124348 0.910557
vt 0.126420 0.910557
vt 0.130331 0.923804
vt 0.126653 0.918413
vt 0.120925 0.914134
vt 0.113706 0.911387
vt 0.105704 0.910440
vt 0.097703 0.911387
vt 0.090484 0.914134
vt 0.084756 0.918413
vt 0.081078 0.923804
vt 0.079811 0.929780
vt 0.081078 0.935757
vt 0.084756 0.941148
vt 0.090484 0.945427
vt 0.097703 0.948174
vt 0.105704 0.949121
vt 0.113706 0.948174
vt 0.120925 0.945427
vt 0.126653 0.941148
vt 0.130331 0.935757
vt 0.131598 0.929780
vt 0.125872 0.833732
vt 0.129428 0.838945
vt 0.120356 0.829614
vt 0.113446 0.826978
vt 0.105811 0.826056
vt 0.098156 0.826927
vt 0.091197 0.829526
vt 0.085617 0.833628
vt 0.081972 0.838846
vt 0.080548 0.844684
vt 0.082159 0.850422
vt 0.085537 0.855635
vt 0.091053 0.859753
vt 0.097963 0.862389
vt 0.105598 0.863311
vt 0.113252 0.862440
vt 0.120209 0.859841
vt 0.125780 0.855742
vt 0.129385 0.850535
vt 0.130644 0.844741
vt 0.130331 0.935757
vt 0.126653 0.941148
vt 0.120925 0.945427
vt 0.113706 0.948174
vt 0.105704 0.949121
vt 0.097703 0.948174
vt 0.090484 0.945427
vt 0.084756 0.941148
vt 0.081078 0.935757
vt 0.079811 0.929780
vt 0.081078 0.923804
vt 0.084756 0.918413
vt 0.090484 0.914134
vt 0.097703 0.911387
vt 0.105704 0.910440
vt 0.113706 0.911387
vt 0.120925 0.914134
vt 0.126653 0.918413
vt 0.130331 0.923804
vt 0.131598 0.929780
vt 0.022844 0.825343
vt 0.188565 0.825343
vt 0.188440 0.966063
vt 0.022939 0.966062
vt 0.022844 0.825343
vt 0.188565 0.825343
vt 0.188436 0.966063
vt 0.022942 0.966062
vt 0.022844 0.825343
vt 0.188565 0.825343
vt 0.188431 0.966063
vt 0.022946 0.966062
vt 0.022844 0.825343
vt 0.188565 0.825343
vt 0.188428 0.966063
vt 0.022948 0.966062
vt 0.022844 0.825343
vt 0.188565 0.825343
vt 0.188428 0.966063
vt 0.022948 0.966062
vt 0.022844 0.825343
vt 0.188565 0.825343
vt 0.188431 0.966063
vt 0.022946 0.966062
vt 0.022844 0.825343
vt 0.188565 0.825343
vt 0.188436 0.966063
vt 0.022942 0.966062
vt 0.022844 0.825343
vt 0.188565 0.825343
vt 0.188440 0.966063
vt 0.022939 0.966062
vt 0.022844 0.825343
vt 0.188565 0.825343
vt 0.188442 0.966063
vt 0.022937 0.966062
vt 0.022844 0.825343
vt 0.188565 0.825343
vt 0.188472 0.966062
vt 0.022967 0.966063
vt 0.022844 0.825343
vt 0.188565 0.825343
vt 0.188440 0.966063
vt 0.022939 0.966062
vt 0.022844 0.825343
vt 0.188565 0.825343
vt 0.188436 0.966063
vt 0.022942 0.966062
vt 0.022844 0.825343
vt 0.188565 0.825343
vt 0.188431 0.966063
vt 0.022946 0.966062
vt 0.022844 0.825343
vt 0.188565 0.825343
vt 0.188428 0.966063
vt 0.022948 0.966062
vt 0.022844 0.825343
vt 0.188565 0.825343
vt 0.188428 0.966063
vt 0.022948 0.966062
vt 0.022844 0.825343
vt 0.188565 0.825343
vt 0.188431 0.966063
vt 0.022946 0.966062
vt 0.022844 0.825343
vt 0.188565 0.825343
vt 0.188436 0.966063
vt 0.022942 0.966062
vt 0.022844 0.825343
vt 0.188565 0.825343
vt 0.188440 0.966063
vt 0.022939 0.966062
vt 0.022844 0.825343
vt 0.188565 0.825343
vt 0.188442 0.966063
vt 0.022937 0.966062
vt 0.022844 0.825343
vt 0.188565 0.825343
vt 0.188442 0.966063
vt 0.022937 0.966062
vn 0.946785 0.000000 -0.321867
vn 0.796096 0.000000 -0.605171
vn 0.796096 0.000000 -0.605171
vn 0.946785 0.000000 -0.321867
vn 0.570371 0.000000 -0.821387
vn 0.570371 0.000000 -0.821387
vn 0.296574 0.000000 -0.955010
vn 0.296574 0.000000 -0.955010
vn -0.000000 0.000000 -1.000000
vn -0.000000 0.000000 -1.000000
vn -0.296574 0.000000 -0.955010
vn -0.296574 0.000000 -0.955010
vn -0.570371 0.000000 -0.821387
vn -0.570371 0.000000 -0.821387
vn -0.796096 0.000000 -0.605170
vn -0.796096 0.000000 -0.605170
vn -0.946784 0.000000 -0.321868
vn -0.946784 0.000000 -0.321868
vn -1.000000 0.000000 0.000000
vn -1.000000 0.000000 0.000000
vn -0.946784 0.000000 0.321869
vn -0.946784 0.000000 0.321869
vn -0.796096 0.000000 0.605171
vn -0.796096 0.000000 0.605171
vn -0.570371 0.000000 0.821387
vn -0.570371 0.000000 0.821387
vn -0.296574 0.000000 0.955010
vn -0.296574 0.000000 0.955010
vn 0.000000 0.000000 1.000000
vn 0.000000 0.000000 1.000000
vn 0.296574 0.000000 0.955010
vn 0.296574 0.000000 0.955010
vn 0.570371 0.000000 0.821387
vn 0.570371 0.000000 0.821387
vn 0.796096 0.000000 0.605170
vn 0.796096 0.000000 0.605170
vn 0.946784 0.000000 0.321868
vn 0.946784 0.000000 0.321868
vn 1.000000 0.000000 0.000001
vn 1.000000 0.000000 0.000001
vn 0.000000 -1.000000 -0.000000
vn 0.000000 -1.000000 -0.000000
vn 0.000000 -1.000000 -0.000000
vn 0.000000 -1.000000 -0.000000
vn 0.000000 -1.000000 -0.000000
vn 0.000000 -1.000000 -0.000000
vn 0.000000 -1.000000 -0.000000
vn 0.000000 -1.000000 -0.000000
vn 0.000000 -1.000000 -0.000000
vn 0.000000 -1.000000 -0.000000
vn 0.000000 -1.000000 -0.000000
vn 0.000000 -1.000000 -0.000000
vn 0.000000 -1.000000 -0.000000
vn 0.000000 -1.000000 -0.000000
vn 0.000000 -1.000000 -0.000000
vn 0.000000 -1.000000 -0.000000
vn -0.000000 -1.000000 -0.000000
vn -0.000000 -1.000000 -0.000000
vn -0.000000 -1.000000 -0.000000
vn -0.000000 -1.000000 -0.000000
vn -0.000000 -1.000000 -0.000000
vn -0.000000 -1.000000 -0.000000
vn -0.000000 -1.000000 -0.000000
vn -0.000000 -1.000000 -0.000000
vn -0.000000 -1.000000 -0.000000
vn -0.000000 -1.000000 -0.000000
vn -0.000000 -1.000000 -0.000000
vn -0.000000 -1.000000 -0.000000
vn -0.000000 -1.000000 -0.000000
vn -0.000000 -1.000000 -0.000000
vn -0.000000 -1.000000 -0.000000
vn -0.000000 -1.000000 -0.000000
vn -0.000000 -1.000000 -0.000000
vn -0.000000 -1.000000 -0.000000
vn -0.000000 -1.000000 -0.000000
vn -0.000000 -1.000000 -0.000000
vn -0.000000 -1.000000 0.000000
vn -0.000000 -1.000000 0.000000
vn -0.000000 -1.000000 0.000000
vn -0.000000 -1.000000 0.000000
vn -0.000000 -1.000000 0.000000
vn -0.000000 -1.000000 0.000000
vn -0.000000 -1.000000 0.000000
vn -0.000000 -1.000000 0.000000
vn -0.000000 -1.000000 0.000000
vn -0.000000 -1.000000 0.000000
vn -0.000000 -1.000000 0.000000
vn -0.000000 -1.000000 0.000000
vn -0.000000 -1.000000 0.000000
vn -0.000000 -1.000000 0.000000
vn -0.000000 -1.000000 0.000000
vn -0.000000 -1.000000 0.000000
vn -0.000000 -1.000000 0.000000
vn -0.000000 -1.000000 0.000000
vn -0.000000 -1.000000 0.000000
vn -0.000000 -1.000000 0.000000
vn 0.000000 -1.000000 0.000000
vn 0.000000 -1.000000 0.000000
vn 0.000000 -1.000000 0.000000
vn 0.000000 -1.000000 0.000000
vn 0.000000 -1.000000 0.000000
vn 0.000000 -1.000000 0.000000
vn 0.000000 -1.000000 0.000000
vn 0.000000 -1.000000 0.000000
vn 0.000000 -1.000000 0.000000
vn 0.000000 -1.000000 0.000000
vn 0.000000 -1.000000 0.000000
vn 0.000000 -1.000000 0.000000
vn 0.000000 -1.000000 0.000000
vn 0.000000 -1.000000 0.000000
vn 0.000000 -1.000000 0.000000
vn 0.000000 -1.000000 0.000000
vn 0.000000 -1.000000 0.000000
vn 0.000000 -1.000000 0.000000
vn 0.000000 -1.000000 0.000000
vn 0.000000 -1.000000 0.000000
vn 0.000000 -1.000000 -0.000000
vn 0.000000 -1.000000 -0.000000
vn 0.000000 -1.000000 -0.000000
vn 0.000000 -1.000000 -0.000000
vn 0.000000 1.000000 -0.000000
vn 0.000000 1.000000 -0.000000
vn 0.000000 1.000000 -0.000000
vn 0.000000 1.000000 -0.000000
vn 0.000000 1.000000 -0.000000
vn 0.000000 1.000000 -0.000000
vn 0.000000 1.000000 -0.000000
vn 0.000000 1.000000 -0.000000
vn 0.000000 1.000000 -0.000000
vn 0.000000 1.000000 -0.000000
vn 0.000000 1.000000 -0.000000
vn 0.000000 1.000000 -0.000000
vn 0.000000 1.000000 -0.000000
vn 0.000000 1.000000 -0.000000
vn 0.000000 1.000000 -0.000000
vn 0.000000 1.000000 -0.000000
vn -0.000000 1.000000 -0.000000
vn -0.000000 1.000000 -0.000000
vn -0.000000 1.000000 -0.000000
vn -0.000000 1.000000 -0.000000
vn -0.000000 1.000000 -0.000000
vn -0.000000 1.000000 -0.000000
vn -0.000000 1.000000 -0.000000
vn -0.000000 1.000000 -0.000000
vn -0.000000 1.000000 -0.000000
vn -0.000000 1.000000 -0.000000
vn -0.000000 1.000000 -0.000000
vn -0.000000 1.000000 -0.000000
vn -0.000000 1.000000 -0.000000
vn -0.000000 1.000000 -0.000000
vn -0.000000 1.000000 -0.000000
vn -0.000000 1.000000 -0.000000
vn -0.000000 1.000000 -0.000000
vn -0.000000 1.000000 -0.000000
vn -0.000000 1.000000 -0.000000
vn -0.000000 1.000000 -0.000000
vn -0.000000 1.000000 0.000000
vn -0.000000 1.000000 0.000000
vn -0.000000 1.000000 0.000000
vn -0.000000 1.000000 0.000000
vn -0.000000 1.000000 0.000000
vn -0.000000 1.000000 0.000000
vn -0.000000 1.000000 0.000000
vn -0.000000 1.000000 0.000000
vn -0.000000 1.000000 0.000000
vn -0.000000 1.000000 0.000000
vn -0.000000 1.000000 0.000000
vn -0.000000 1.000000 0.000000
vn -0.000000 1.000000 0.000000
vn -0.000000 1.000000 0.000000
vn -0.000000 1.000000 0.000000
vn -0.000000 1.000000 0.000000
vn -0.000000 1.000000 0.000000
vn -0.000000 1.000000 0.000000
vn -0.000000 1.000000 0.000000
vn -0.000000 1.000000 0.000000
vn 0.000000 1.000000 0.000000
vn 0.000000 1.000000 0.000000
vn 0.000000 1.000000 0.000000
vn 0.000000 1.000000 0.000000
vn 0.000000 1.000000 0.000000
vn 0.000000 1.000000 0.000000
vn 0.000000 1.000000 0.000000
vn 0.000000 1.000000 0.000000
vn 0.000000 1.000000 0.000000
vn 0.000000 1.000000 0.000000
vn 0.000000 1.000000 0.000000
vn 0.000000 1.000000 0.000000
vn 0.000000 1.000000 0.000000
vn 0.000000 1.000000 0.000000
vn 0.000000 1.000000 0.000000
vn 0.000000 1.000000 0.000000
vn 0.000000 1.000000 0.000000
vn 0.000000 1.000000 0.000000
vn 0.000000 1.000000 0.000000
vn 0.000000 1.000000 0.000000
vn 0.000000 1.000000 -0.000000
vn 0.000000 1.000000 -0.000000
vn 0.000000 1.000000 -0.000000
vn 0.000000 1.000000 -0.000000
vn -0.893085 0.000000 0.449888
vn -0.893085 0.000000 0.449888
vn -0.893085 0.000000 0.449888
vn -0.893085 0.000000 0.449888
vn -0.711128 0.000000 0.703062
vn -0.711128 0.000000 0.703062
vn -0.711128 0.000000 0.703062
vn -0.711128 0.000000 0.703062
vn -0.458111 0.000000 0.888895
vn -0.458111 0.000000 0.888895
vn -0.458111 0.000000 0.888895
vn -0.458111 0.000000 0.888895
vn -0.158184 0.000000 0.987410
vn -0.158184 0.000000 0.987410
vn -0.158184 0.000000 0.987410
vn -0.158184 0.000000 0.987410
vn 0.158185 0.000000 0.987410
vn 0.158185 0.000000 0.987410
vn 0.158185 0.000000 0.987410
vn 0.158185 0.000000 0.987410
vn 0.458111 0.000000 0.888895
vn 0.458111 0.000000 0.888895
vn 0.458111 0.000000 0.888895
vn 0.458111 0.000000 0.888895
vn 0.711129 0.000000 0.703062
vn 0.711129 0.000000 0.703062
vn 0.711129 0.000000 0.703062
vn 0.711129 0.000000 0.703062
vn 0.893085 0.000000 0.449888
vn 0.893085 0.000000 0.449888
vn 0.893085 0.000000 0.449888
vn 0.893085 0.000000 0.449888
vn 0.987961 0.000000 0.154703
vn 0.987961 0.000000 0.154703
vn 0.987961 0.000000 0.154703
vn 0.987961 0.000000 0.154703
vn 0.987961 0.000000 -0.154703
vn 0.987961 0.000000 -0.154703
vn 0.987961 0.000000 -0.154703
vn 0.987961 0.000000 -0.154703
vn 0.893085 0.000000 -0.449888
vn 0.893085 0.000000 -0.449888
vn 0.893085 0.000000 -0.449888
vn 0.893085 0.000000 -0.449888
vn 0.711128 0.000000 -0.703062
vn 0.711128 0.000000 -0.703062
vn 0.711128 0.000000 -0.703062
vn 0.711128 0.000000 -0.703062
vn 0.458111 0.000000 -0.888895
vn 0.458111 0.000000 -0.888895
vn 0.458111 0.000000 -0.888895
vn 0.458111 0.000000 -0.888895
vn 0.158184 0.000000 -0.987410
vn 0.158184 0.000000 -0.987410
vn 0.158184 0.000000 -0.987410
vn 0.158184 0.000000 -0.987410
vn -0.158184 0.000000 -0.987410
vn -0.158184 0.000000 -0.987410
vn -0.158184 0.000000 -0.987410
vn -0.158184 0.000000 -0.987410
vn -0.458111 0.000000 -0.888895
vn -0.458111 0.000000 -0.888895
vn -0.458111 0.000000 -0.888895
vn -0.458111 0.000000 -0.888895
vn -0.711128 0.000000 -0.703062
vn -0.711128 0.000000 -0.703062
vn -0.711128 0.000000 -0.703062
vn -0.711128 0.000000 -0.703062
vn -0.893085 0.000000 -0.449888
vn -0.893085 0.000000 -0.449888
vn -0.893085 0.000000 -0.449888
vn -0.893085 0.000000 -0.449888
vn -0.987961 0.000000 -0.154703
vn -0.987961 0.000000 -0.154703
vn -0.987961 0.000000 -0.154703
vn -0.987961 0.000000 -0.154703
vn -0.987961 0.000000 0.154701
vn -0.987961 0.000000 0.154701
vn -0.987961 0.000000 0.154701
vn -0.987961 0.000000 0.154701
s 1
g pCylinder1
usemtl StingrayPBS1SG
f 1/21/1 2/22/2 22/43/3 21/42/4
f 2/22/2 3/23/5 23/44/6 22/43/3
f 3/23/5 4/24/7 24/45/8 23/44/6
f 4/24/7 5/25/9 25/46/10 24/45/8
f 5/25/9 6/26/11 26/47/12 25/46/10
f 6/26/11 7/27/13 27/48/14 26/47/12
f 7/27/13 8/28/15 28/49/16 27/48/14
f 8/28/15 9/29/17 29/50/18 28/49/16
f 9/29/17 10/30/19 30/51/20 29/50/18
f 10/30/19 11/31/21 31/52/22 30/51/20
f 11/31/21 12/32/23 32/53/24 31/52/22
f 12/32/23 13/33/25 33/54/26 32/53/24
f 13/33/25 14/34/27 34/55/28 33/54/26
f 14/34/27 15/35/29 35/56/30 34/55/28
f 15/35/29 16/36/31 36/57/32 35/56/30
f 16/36/31 17/37/33 37/58/34 36/57/32
f 17/37/33 18/38/35 38/59/36 37/58/34
f 18/38/35 19/39/37 39/60/38 38/59/36
f 19/39/37 20/40/39 40/61/40 39/60/38
f 20/40/39 1/41/1 21/62/4 40/61/40
s off
f 2/2/41 1/1/42 41/84/43 42/83/44
f 3/3/45 2/2/46 42/83/47 43/85/48
f 4/4/49 3/3/50 43/85/51 44/86/52
f 5/5/53 4/4/54 44/86/55 45/87/56
f 6/6/57 5/5/58 45/87/59 46/88/60
f 7/7/61 6/6/62 46/88/63 47/89/64
f 8/8/65 7/7/66 47/89/67 48/90/68
f 9/9/69 8/8/70 48/90/71 49/91/72
f 10/10/73 9/9/74 49/91/75 50/92/76
f 11/11/77 10/10/78 50/92/79 51/93/80
f 12/12/81 11/11/82 51/93/83 52/94/84
f 13/13/85 12/12/86 52/94/87 53/95/88
f 14/14/89 13/13/90 53/95/91 54/96/92
f 15/15/93 14/14/94 54/96/95 55/97/96
f 16/16/97 15/15/98 55/97/99 56/98/100
f 17/17/101 16/16/102 56/98/103 57/99/104
f 18/18/105 17/17/106 57/99/107 58/100/108
f 19/19/109 18/18/110 58/100/111 59/101/112
f 20/20/113 19/19/114 59/101/115 60/102/116
f 1/1/117 20/20/118 60/102/119 41/84/120
f 21/81/121 22/80/122 62/104/123 61/103/124
f 22/80/125 23/79/126 63/105/127 62/104/128
f 23/79/129 24/78/130 64/106/131 63/105/132
f 24/78/133 25/77/134 65/107/135 64/106/136
f 25/77/137 26/76/138 66/108/139 65/107/140
f 26/76/141 27/75/142 67/109/143 66/108/144
f 27/75/145 28/74/146 68/110/147 67/109/148
f 28/74/149 29/73/150 69/111/151 68/110/152
f 29/73/153 30/72/154 70/112/155 69/111/156
f 30/72/157 31/71/158 71/113/159 70/112/160
f 31/71/161 32/70/162 72/114/163 71/113/164
f 32/70/165 33/69/166 73/115/167 72/114/168
f 33/69/169 34/68/170 74/116/171 73/115/172
f 34/68/173 35/67/174 75/117/175 74/116/176
f 35/67/177 36/66/178 76/118/179 75/117/180
f 36/66/181 37/65/182 77/119/183 76/118/184
f 37/65/185 38/64/186 78/120/187 77/119/188
f 38/64/189 39/63/190 79/121/191 78/120/192
f 39/63/193 40/82/194 80/122/195 79/121/196
f 40/82/197 21/81/198 61/103/199 80/122/200
f 61/123/201 62/124/202 42/125/203 41/126/204
f 62/127/205 63/128/206 43/129/207 42/130/208
f 63/131/209 64/132/210 44/133/211 43/134/212
f 64/135/213 65/136/214 45/137/215 44/138/216
f 65/139/217 66/140/218 46/141/219 45/142/220
f 66/143/221 67/144/222 47/145/223 46/146/224
f 67/147/225 68/148/226 48/149/227 47/150/228
f 68/151/229 69/152/230 49/153/231 48/154/232
f 69/155/233 70/156/234 50/157/235 49/158/236
f 70/159/237 71/160/238 51/161/239 50/162/240
f 71/163/241 72/164/242 52/165/243 51/166/244
f 72/167/245 73/168/246 53/169/247 52/170/248
f 73/171/249 74/172/250 54/173/251 53/174/252
f 74/175/253 75/176/254 55/177/255 54/178/256
f 75/179/257 76/180/258 56/181/259 55/182/260
f 76/183/261 77/184/262 57/185/263 56/186/264
f 77/187/265 78/188/266 58/189/267 57/190/268
f 78/191/269 79/192/270 59/193/271 58/194/272
f 79/195/273 80/196/274 60/197/275 59/198/276
f 80/199/277 61/200/278 41/201/279 60/202/280
